# xmcd CD database file
#
# Track frame offsets:
#	182
#	22050
#	33267
#	46212
#	56900
#	69240
#	80907
#	93942
#	106395
#	116817
#	129915
#	141212
#	152797
#	163105
#	175965
#
# Disc length: 2494 seconds
#
# Revision: 2
# Processed by: cddbd v1.5.2PL0 Copyright (c) Steve Scherf et al.
# Submitted via: CDex 1.70beta2
#
DISCID=ce09bc0f
DTITLE=Elmore James - Dust My Broom
DYEAR=1991
DGENRE=Blues
TTITLE0=Something Inside of Me
TTITLE1=Person to Person
TTITLE2=Baby Please Set a Date
TTITLE3=One Way Out
TTITLE4=The Sky Is Crying
TTITLE5=Talk to Me
TTITLE6=Anna Lee
TTITLE7=I Needed You
TTITLE8=Done Somebody Wrong
TTITLE9=Dust My Broom
TTITLE10=Shake Your Money Maker
TTITLE11=Fine Little Mama
TTITLE12=Can't Stop Lovin My Baby
TTITLE13=Help My Baby Last Night
TTITLE14=Rollin' and Tumblin'
EXTD=YEAR: 1991
EXTT0=
EXTT1=
EXTT2=
EXTT3=
EXTT4=
EXTT5=
EXTT6=
EXTT7=
EXTT8=
EXTT9=
EXTT10=
EXTT11=
EXTT12=
EXTT13=
EXTT14=
PLAYORDER=
